{
	"asset":{
		"generator":"Khronos glTF Blender I/O v4.4.56",
		"version":"2.0"
	},
	"extensionsUsed":[
		"KHR_materials_specular",
		"KHR_materials_ior"
	],
	"scene":0,
	"scenes":[
		{
			"name":"Scene",
			"nodes":[
				0,
				1,
				2,
				3,
				6
			]
		}
	],
	"nodes":[
		{
			"mesh":0,
			"name":"Cube",
			"translation":[
				-0.002849036594852805,
				0.4596843719482422,
				-0.00038833916187286377
			]
		},
		{
			"mesh":1,
			"name":"Circle",
			"translation":[
				0,
				-0.6111677885055542,
				0
			]
		},
		{
			"mesh":2,
			"name":"Cylinder",
			"rotation":[
				0,
				0.5969725251197815,
				0,
				0.8022617101669312
			],
			"translation":[
				0,
				-0.2866279184818268,
				0
			]
		},
		{
			"mesh":3,
			"name":"Cylinder.001",
			"translation":[
				0,
				0.1928451955318451,
				0
			]
		},
		{
			"mesh":4,
			"name":"uni.001",
			"scale":[
				0.07013910263776779,
				0.07013930380344391,
				0.07013930380344391
			],
			"translation":[
				-0.02274053543806076,
				-0.01529422402381897,
				0
			]
		},
		{
			"mesh":5,
			"name":"uni.002",
			"scale":[
				0.07013910263776779,
				0.07013930380344391,
				0.07013930380344391
			],
			"translation":[
				-0.02274053543806076,
				-0.01529422402381897,
				0
			]
		},
		{
			"children":[
				4,
				5
			],
			"mesh":6,
			"name":"Tapa",
			"rotation":[
				0,
				-0.4165678024291992,
				0,
				0.9091046452522278
			],
			"translation":[
				0.11782311648130417,
				-0.2545672357082367,
				-0.25248846411705017
			]
		}
	],
	"materials":[
		{
			"doubleSided":true,
			"name":"Oro",
			"pbrMetallicRoughness":{
				"baseColorFactor":[
					0.6583750247955322,
					0.391572505235672,
					0.0231533944606781,
					1
				],
				"roughnessFactor":0.1090908944606781
			}
		},
		{
			"doubleSided":true,
			"extensions":{
				"KHR_materials_specular":{
					"specularFactor":0
				},
				"KHR_materials_ior":{
					"ior":1.4500000476837158
				}
			},
			"name":"Material.004",
			"pbrMetallicRoughness":{
				"baseColorFactor":[
					0.024646926671266556,
					0.0236864872276783,
					0.027736037969589233,
					1
				],
				"metallicFactor":0
			}
		},
		{
			"doubleSided":true,
			"name":"Material.001",
			"pbrMetallicRoughness":{
				"baseColorFactor":[
					0,
					0,
					0,
					1
				],
				"metallicFactor":0,
				"roughnessFactor":0.4954545497894287
			}
		},
		{
			"doubleSided":true,
			"name":"Material.003",
			"pbrMetallicRoughness":{
				"baseColorTexture":{
					"index":0
				},
				"metallicFactor":0
			}
		},
		{
			"doubleSided":true,
			"name":"uni",
			"pbrMetallicRoughness":{
				"baseColorFactor":[
					0,
					0,
					0,
					1
				],
				"metallicFactor":0
			}
		},
		{
			"doubleSided":true,
			"name":"Material.002",
			"pbrMetallicRoughness":{
				"baseColorTexture":{
					"index":1
				},
				"metallicFactor":0
			}
		}
	],
	"meshes":[
		{
			"name":"Cube",
			"primitives":[
				{
					"attributes":{
						"POSITION":0,
						"NORMAL":1,
						"TEXCOORD_0":2
					},
					"indices":3,
					"material":0
				}
			]
		},
		{
			"name":"Circle.001",
			"primitives":[
				{
					"attributes":{
						"POSITION":4,
						"NORMAL":5,
						"TEXCOORD_0":6
					},
					"indices":7,
					"material":1
				}
			]
		},
		{
			"name":"Cylinder.001",
			"primitives":[
				{
					"attributes":{
						"POSITION":8,
						"NORMAL":9,
						"TEXCOORD_0":10
					},
					"indices":11,
					"material":2
				},
				{
					"attributes":{
						"POSITION":12,
						"NORMAL":13,
						"TEXCOORD_0":14
					},
					"indices":15,
					"material":3
				}
			]
		},
		{
			"name":"Cylinder.002",
			"primitives":[
				{
					"attributes":{
						"POSITION":16,
						"NORMAL":17,
						"TEXCOORD_0":18
					},
					"indices":19,
					"material":0
				}
			]
		},
		{
			"name":"Circle.002",
			"primitives":[
				{
					"attributes":{
						"POSITION":20,
						"NORMAL":21,
						"TEXCOORD_0":22
					},
					"indices":23,
					"material":4
				}
			]
		},
		{
			"name":"Circle.003",
			"primitives":[
				{
					"attributes":{
						"POSITION":24,
						"NORMAL":25,
						"TEXCOORD_0":26
					},
					"indices":27,
					"material":5
				}
			]
		},
		{
			"name":"Cylinder.003",
			"primitives":[
				{
					"attributes":{
						"POSITION":28,
						"NORMAL":29,
						"TEXCOORD_0":30
					},
					"indices":31,
					"material":0
				}
			]
		}
	],
	"textures":[
		{
			"sampler":0,
			"source":0
		},
		{
			"sampler":0,
			"source":1
		}
	],
	"images":[
		{
			"mimeType":"image/png",
			"name":"Etiqueta Posca-01",
			"uri":"Etiqueta%20Posca-01.png"
		},
		{
			"mimeType":"image/jpeg",
			"name":"uniball-logo-web-3",
			"uri":"uniball-logo-web-3.jpg"
		}
	],
	"accessors":[
		{
			"bufferView":0,
			"componentType":5126,
			"count":17496,
			"max":[
				0.04440411552786827,
				0.09187040477991104,
				0.04167940095067024
			],
			"min":[
				-0.0405958853662014,
				-0.06803656369447708,
				-0.04332059994339943
			],
			"type":"VEC3"
		},
		{
			"bufferView":1,
			"componentType":5126,
			"count":17496,
			"type":"VEC3"
		},
		{
			"bufferView":2,
			"componentType":5126,
			"count":17496,
			"type":"VEC2"
		},
		{
			"bufferView":3,
			"componentType":5123,
			"count":26244,
			"type":"SCALAR"
		},
		{
			"bufferView":4,
			"componentType":5126,
			"count":192,
			"max":[
				1,
				0,
				1
			],
			"min":[
				-1,
				-0.009645391255617142,
				-1
			],
			"type":"VEC3"
		},
		{
			"bufferView":5,
			"componentType":5126,
			"count":192,
			"type":"VEC3"
		},
		{
			"bufferView":6,
			"componentType":5126,
			"count":192,
			"type":"VEC2"
		},
		{
			"bufferView":7,
			"componentType":5123,
			"count":372,
			"type":"SCALAR"
		},
		{
			"bufferView":8,
			"componentType":5126,
			"count":2751,
			"max":[
				0.12487413734197617,
				0.34090757369995117,
				0.125
			],
			"min":[
				-0.12487412989139557,
				-0.32337209582328796,
				-0.125
			],
			"type":"VEC3"
		},
		{
			"bufferView":9,
			"componentType":5126,
			"count":2751,
			"type":"VEC3"
		},
		{
			"bufferView":10,
			"componentType":5126,
			"count":2751,
			"type":"VEC2"
		},
		{
			"bufferView":11,
			"componentType":5123,
			"count":11748,
			"type":"SCALAR"
		},
		{
			"bufferView":12,
			"componentType":5126,
			"count":213,
			"max":[
				0.12487413734197617,
				0.33704036474227905,
				0.125
			],
			"min":[
				-0.12487412989139557,
				-0.30582329630851746,
				-0.125
			],
			"type":"VEC3"
		},
		{
			"bufferView":13,
			"componentType":5126,
			"count":213,
			"type":"VEC3"
		},
		{
			"bufferView":14,
			"componentType":5126,
			"count":213,
			"type":"VEC2"
		},
		{
			"bufferView":15,
			"componentType":5123,
			"count":420,
			"type":"SCALAR"
		},
		{
			"bufferView":16,
			"componentType":5126,
			"count":843,
			"max":[
				0.12487413734197617,
				0.26176759600639343,
				0.125
			],
			"min":[
				-0.12487412989139557,
				-0.1385655403137207,
				-0.125
			],
			"type":"VEC3"
		},
		{
			"bufferView":17,
			"componentType":5126,
			"count":843,
			"type":"VEC3"
		},
		{
			"bufferView":18,
			"componentType":5126,
			"count":843,
			"type":"VEC2"
		},
		{
			"bufferView":19,
			"componentType":5123,
			"count":4824,
			"type":"SCALAR"
		},
		{
			"bufferView":20,
			"componentType":5126,
			"count":216,
			"max":[
				2.1998965740203857,
				0.7433357238769531,
				1
			],
			"min":[
				-0.6843783855438232,
				-0.7433362007141113,
				-1
			],
			"type":"VEC3"
		},
		{
			"bufferView":21,
			"componentType":5126,
			"count":216,
			"type":"VEC3"
		},
		{
			"bufferView":22,
			"componentType":5126,
			"count":216,
			"type":"VEC2"
		},
		{
			"bufferView":23,
			"componentType":5123,
			"count":432,
			"type":"SCALAR"
		},
		{
			"bufferView":24,
			"componentType":5126,
			"count":4,
			"max":[
				2.1998965740203857,
				0.42929551005363464,
				1
			],
			"min":[
				2.1998958587646484,
				-0.7433362007141113,
				-1
			],
			"type":"VEC3"
		},
		{
			"bufferView":25,
			"componentType":5126,
			"count":4,
			"type":"VEC3"
		},
		{
			"bufferView":26,
			"componentType":5126,
			"count":4,
			"type":"VEC2"
		},
		{
			"bufferView":27,
			"componentType":5123,
			"count":6,
			"type":"SCALAR"
		},
		{
			"bufferView":28,
			"componentType":5126,
			"count":3307,
			"max":[
				0.12487413734197617,
				0.03600597381591797,
				0.125
			],
			"min":[
				-0.12487412989139557,
				-0.35538846254348755,
				-0.1249999925494194
			],
			"type":"VEC3"
		},
		{
			"bufferView":29,
			"componentType":5126,
			"count":3307,
			"type":"VEC3"
		},
		{
			"bufferView":30,
			"componentType":5126,
			"count":3307,
			"type":"VEC2"
		},
		{
			"bufferView":31,
			"componentType":5123,
			"count":13008,
			"type":"SCALAR"
		}
	],
	"bufferViews":[
		{
			"buffer":0,
			"byteLength":209952,
			"byteOffset":0,
			"target":34962
		},
		{
			"buffer":0,
			"byteLength":209952,
			"byteOffset":209952,
			"target":34962
		},
		{
			"buffer":0,
			"byteLength":139968,
			"byteOffset":419904,
			"target":34962
		},
		{
			"buffer":0,
			"byteLength":52488,
			"byteOffset":559872,
			"target":34963
		},
		{
			"buffer":0,
			"byteLength":2304,
			"byteOffset":612360,
			"target":34962
		},
		{
			"buffer":0,
			"byteLength":2304,
			"byteOffset":614664,
			"target":34962
		},
		{
			"buffer":0,
			"byteLength":1536,
			"byteOffset":616968,
			"target":34962
		},
		{
			"buffer":0,
			"byteLength":744,
			"byteOffset":618504,
			"target":34963
		},
		{
			"buffer":0,
			"byteLength":33012,
			"byteOffset":619248,
			"target":34962
		},
		{
			"buffer":0,
			"byteLength":33012,
			"byteOffset":652260,
			"target":34962
		},
		{
			"buffer":0,
			"byteLength":22008,
			"byteOffset":685272,
			"target":34962
		},
		{
			"buffer":0,
			"byteLength":23496,
			"byteOffset":707280,
			"target":34963
		},
		{
			"buffer":0,
			"byteLength":2556,
			"byteOffset":730776,
			"target":34962
		},
		{
			"buffer":0,
			"byteLength":2556,
			"byteOffset":733332,
			"target":34962
		},
		{
			"buffer":0,
			"byteLength":1704,
			"byteOffset":735888,
			"target":34962
		},
		{
			"buffer":0,
			"byteLength":840,
			"byteOffset":737592,
			"target":34963
		},
		{
			"buffer":0,
			"byteLength":10116,
			"byteOffset":738432,
			"target":34962
		},
		{
			"buffer":0,
			"byteLength":10116,
			"byteOffset":748548,
			"target":34962
		},
		{
			"buffer":0,
			"byteLength":6744,
			"byteOffset":758664,
			"target":34962
		},
		{
			"buffer":0,
			"byteLength":9648,
			"byteOffset":765408,
			"target":34963
		},
		{
			"buffer":0,
			"byteLength":2592,
			"byteOffset":775056,
			"target":34962
		},
		{
			"buffer":0,
			"byteLength":2592,
			"byteOffset":777648,
			"target":34962
		},
		{
			"buffer":0,
			"byteLength":1728,
			"byteOffset":780240,
			"target":34962
		},
		{
			"buffer":0,
			"byteLength":864,
			"byteOffset":781968,
			"target":34963
		},
		{
			"buffer":0,
			"byteLength":48,
			"byteOffset":782832,
			"target":34962
		},
		{
			"buffer":0,
			"byteLength":48,
			"byteOffset":782880,
			"target":34962
		},
		{
			"buffer":0,
			"byteLength":32,
			"byteOffset":782928,
			"target":34962
		},
		{
			"buffer":0,
			"byteLength":12,
			"byteOffset":782960,
			"target":34963
		},
		{
			"buffer":0,
			"byteLength":39684,
			"byteOffset":782972,
			"target":34962
		},
		{
			"buffer":0,
			"byteLength":39684,
			"byteOffset":822656,
			"target":34962
		},
		{
			"buffer":0,
			"byteLength":26456,
			"byteOffset":862340,
			"target":34962
		},
		{
			"buffer":0,
			"byteLength":26016,
			"byteOffset":888796,
			"target":34963
		}
	],
	"samplers":[
		{
			"magFilter":9729,
			"minFilter":9987,
			"wrapS":33071,
			"wrapT":33071
		}
	],
	"buffers":[
		{
			"byteLength":914812,
			"uri":"scene.bin"
		}
	]
}
