{
	"asset":{
		"generator":"Khronos glTF Blender I/O v4.4.56",
		"version":"2.0"
	},
	"scene":0,
	"scenes":[
		{
			"name":"Scene",
			"nodes":[
				3,
				5,
				7,
				8
			]
		}
	],
	"nodes":[
		{
			"mesh":0,
			"name":"Cube",
			"rotation":[
				0,
				0,
				0.7071068286895752,
				0.7071068286895752
			],
			"translation":[
				-0.007557651028037071,
				-1.2776432037353516,
				0.21286389231681824
			]
		},
		{
			"mesh":1,
			"name":"Curve.001",
			"rotation":[
				0,
				0,
				0.7071068286895752,
				0.7071067690849304
			],
			"scale":[
				15.447948455810547,
				15.447948455810547,
				15.447948455810547
			],
			"translation":[
				0,
				0.7140613198280334,
				0.6318032145500183
			]
		},
		{
			"mesh":2,
			"name":"Plane",
			"rotation":[
				0,
				0,
				0.7071068286895752,
				0.7071068286895752
			],
			"scale":[
				0.44408971071243286,
				0.2968887388706207,
				0.15834997594356537
			],
			"translation":[
				-0.04357118159532547,
				-1.2788341045379639,
				0.43276381492614746
			]
		},
		{
			"children":[
				0,
				1,
				2
			],
			"mesh":3,
			"name":"Cylinder",
			"rotation":[
				0.4884665310382843,
				0.5011464357376099,
				-0.5718387961387634,
				0.42808082699775696
			],
			"translation":[
				-0.7362821102142334,
				0.3321399688720703,
				-0.24259603023529053
			]
		},
		{
			"mesh":4,
			"name":"Cube.001",
			"rotation":[
				-0.70710688829422,
				0,
				0,
				0.7071066498756409
			],
			"translation":[
				0.0023102150298655033,
				-0.02779719978570938,
				1.2421287298202515
			]
		},
		{
			"children":[
				4
			],
			"mesh":5,
			"name":"Torus",
			"rotation":[
				0.5501392483711243,
				0.40317726135253906,
				-0.3435846269130707,
				0.6455575227737427
			],
			"translation":[
				-4.187779426574707,
				1.5852224826812744,
				0.31314027309417725
			]
		},
		{
			"mesh":6,
			"name":"Chaines",
			"scale":[
				0.15477624535560608,
				0.15477626025676727,
				0.15477623045444489
			]
		},
		{
			"children":[
				6
			],
			"name":"BezierCircle",
			"rotation":[
				0.7038349509239197,
				0.06794347614049911,
				-0.06794347614049911,
				0.7038350105285645
			],
			"scale":[
				3.552367687225342,
				3.552367687225342,
				3.552367687225342
			],
			"translation":[
				-2.9031624794006348,
				0.5764628648757935,
				-3.8123221397399902
			]
		},
		{
			"mesh":7,
			"name":"Cylinder.001",
			"rotation":[
				0.49475181102752686,
				0.4925972521305084,
				-0.5792799592018127,
				0.42071783542633057
			],
			"scale":[
				0.9324082136154175,
				0.9324082136154175,
				0.9324082732200623
			],
			"translation":[
				-0.25089913606643677,
				0.26750802993774414,
				-0.2990846633911133
			]
		}
	],
	"materials":[
		{
			"doubleSided":true,
			"name":"Candado",
			"pbrMetallicRoughness":{
				"baseColorFactor":[
					1,
					0.32689109444618225,
					0.029516102746129036,
					1
				],
				"roughnessFactor":0
			}
		}
	],
	"meshes":[
		{
			"name":"Cube.004",
			"primitives":[
				{
					"attributes":{
						"POSITION":0,
						"NORMAL":1,
						"TEXCOORD_0":2
					},
					"indices":3,
					"material":0
				}
			]
		},
		{
			"name":"Curve.001",
			"primitives":[
				{
					"attributes":{
						"POSITION":4,
						"NORMAL":5,
						"TEXCOORD_0":6
					},
					"indices":7,
					"material":0
				}
			]
		},
		{
			"name":"Plane",
			"primitives":[
				{
					"attributes":{
						"POSITION":8,
						"NORMAL":9,
						"TEXCOORD_0":10
					},
					"indices":11,
					"material":0
				}
			]
		},
		{
			"name":"Cylinder",
			"primitives":[
				{
					"attributes":{
						"POSITION":12,
						"NORMAL":13,
						"TEXCOORD_0":14
					},
					"indices":15,
					"material":0
				}
			]
		},
		{
			"name":"Cube",
			"primitives":[
				{
					"attributes":{
						"POSITION":16,
						"NORMAL":17,
						"TEXCOORD_0":18
					},
					"indices":19,
					"material":0
				}
			]
		},
		{
			"name":"Torus",
			"primitives":[
				{
					"attributes":{
						"POSITION":20,
						"NORMAL":21,
						"TEXCOORD_0":22
					},
					"indices":23,
					"material":0
				}
			]
		},
		{
			"name":"Torus.001",
			"primitives":[
				{
					"attributes":{
						"POSITION":24,
						"NORMAL":25,
						"TEXCOORD_0":26
					},
					"indices":27,
					"material":0
				}
			]
		},
		{
			"name":"Cylinder.002",
			"primitives":[
				{
					"attributes":{
						"POSITION":28,
						"NORMAL":29,
						"TEXCOORD_0":30
					},
					"indices":31,
					"material":0
				}
			]
		}
	],
	"accessors":[
		{
			"bufferView":0,
			"componentType":5126,
			"count":2904,
			"max":[
				0.17568698525428772,
				0.03305940702557564,
				0.095004603266716
			],
			"min":[
				-0.17568698525428772,
				-0.03305940702557564,
				-0.095004603266716
			],
			"type":"VEC3"
		},
		{
			"bufferView":1,
			"componentType":5126,
			"count":2904,
			"type":"VEC3"
		},
		{
			"bufferView":2,
			"componentType":5126,
			"count":2904,
			"type":"VEC2"
		},
		{
			"bufferView":3,
			"componentType":5123,
			"count":4356,
			"type":"SCALAR"
		},
		{
			"bufferView":4,
			"componentType":5126,
			"count":5612,
			"max":[
				0.0695512667298317,
				0.004000000189989805,
				-0.010323005728423595
			],
			"min":[
				0.01751980185508728,
				-0.004000000189989805,
				-0.07167518883943558
			],
			"type":"VEC3"
		},
		{
			"bufferView":5,
			"componentType":5126,
			"count":5612,
			"type":"VEC3"
		},
		{
			"bufferView":6,
			"componentType":5126,
			"count":5612,
			"type":"VEC2"
		},
		{
			"bufferView":7,
			"componentType":5123,
			"count":28656,
			"type":"SCALAR"
		},
		{
			"bufferView":8,
			"componentType":5126,
			"count":6848,
			"max":[
				1,
				0,
				1.0000001192092896
			],
			"min":[
				-1,
				-0.2543897032737732,
				-1.0000001192092896
			],
			"type":"VEC3"
		},
		{
			"bufferView":9,
			"componentType":5126,
			"count":6848,
			"type":"VEC3"
		},
		{
			"bufferView":10,
			"componentType":5126,
			"count":6848,
			"type":"VEC2"
		},
		{
			"bufferView":11,
			"componentType":5123,
			"count":10692,
			"type":"SCALAR"
		},
		{
			"bufferView":12,
			"componentType":5126,
			"count":452,
			"max":[
				0.13999994099140167,
				1,
				0.13999998569488525
			],
			"min":[
				-0.13999994099140167,
				-1.9703222513198853,
				-0.13999998569488525
			],
			"type":"VEC3"
		},
		{
			"bufferView":13,
			"componentType":5126,
			"count":452,
			"type":"VEC3"
		},
		{
			"bufferView":14,
			"componentType":5126,
			"count":452,
			"type":"VEC2"
		},
		{
			"bufferView":15,
			"componentType":5123,
			"count":1908,
			"type":"SCALAR"
		},
		{
			"bufferView":16,
			"componentType":5126,
			"count":124615,
			"max":[
				0.892611563205719,
				0.9999997615814209,
				0.3716566562652588
			],
			"min":[
				-0.8890339136123657,
				-1.0000004768371582,
				-0.3804861307144165
			],
			"type":"VEC3"
		},
		{
			"bufferView":17,
			"componentType":5126,
			"count":124615,
			"type":"VEC3"
		},
		{
			"bufferView":18,
			"componentType":5126,
			"count":124615,
			"type":"VEC2"
		},
		{
			"bufferView":19,
			"componentType":5125,
			"count":747678,
			"type":"SCALAR"
		},
		{
			"bufferView":20,
			"componentType":5126,
			"count":702,
			"max":[
				0.7099998593330383,
				0.10978302359580994,
				0.8771759271621704
			],
			"min":[
				-0.7099998593330383,
				-0.1097828820347786,
				-0.7099998593330383
			],
			"type":"VEC3"
		},
		{
			"bufferView":21,
			"componentType":5126,
			"count":702,
			"type":"VEC3"
		},
		{
			"bufferView":22,
			"componentType":5126,
			"count":702,
			"type":"VEC2"
		},
		{
			"bufferView":23,
			"componentType":5123,
			"count":3900,
			"type":"SCALAR"
		},
		{
			"bufferView":24,
			"componentType":5126,
			"count":75950,
			"max":[
				7.680996894836426,
				0.683483898639679,
				8.519407272338867
			],
			"min":[
				-7.698855876922607,
				-0.6984230279922485,
				-5.463967800140381
			],
			"type":"VEC3"
		},
		{
			"bufferView":25,
			"componentType":5126,
			"count":75950,
			"type":"VEC3"
		},
		{
			"bufferView":26,
			"componentType":5126,
			"count":75950,
			"type":"VEC2"
		},
		{
			"bufferView":27,
			"componentType":5125,
			"count":428544,
			"type":"SCALAR"
		},
		{
			"bufferView":28,
			"componentType":5126,
			"count":2677,
			"max":[
				0.17987991869449615,
				0.10000002384185791,
				0.18000000715255737
			],
			"min":[
				-0.17987991869449615,
				-0.10000002384185791,
				-0.18000000715255737
			],
			"type":"VEC3"
		},
		{
			"bufferView":29,
			"componentType":5126,
			"count":2677,
			"type":"VEC3"
		},
		{
			"bufferView":30,
			"componentType":5126,
			"count":2677,
			"type":"VEC2"
		},
		{
			"bufferView":31,
			"componentType":5123,
			"count":9276,
			"type":"SCALAR"
		}
	],
	"bufferViews":[
		{
			"buffer":0,
			"byteLength":34848,
			"byteOffset":0,
			"target":34962
		},
		{
			"buffer":0,
			"byteLength":34848,
			"byteOffset":34848,
			"target":34962
		},
		{
			"buffer":0,
			"byteLength":23232,
			"byteOffset":69696,
			"target":34962
		},
		{
			"buffer":0,
			"byteLength":8712,
			"byteOffset":92928,
			"target":34963
		},
		{
			"buffer":0,
			"byteLength":67344,
			"byteOffset":101640,
			"target":34962
		},
		{
			"buffer":0,
			"byteLength":67344,
			"byteOffset":168984,
			"target":34962
		},
		{
			"buffer":0,
			"byteLength":44896,
			"byteOffset":236328,
			"target":34962
		},
		{
			"buffer":0,
			"byteLength":57312,
			"byteOffset":281224,
			"target":34963
		},
		{
			"buffer":0,
			"byteLength":82176,
			"byteOffset":338536,
			"target":34962
		},
		{
			"buffer":0,
			"byteLength":82176,
			"byteOffset":420712,
			"target":34962
		},
		{
			"buffer":0,
			"byteLength":54784,
			"byteOffset":502888,
			"target":34962
		},
		{
			"buffer":0,
			"byteLength":21384,
			"byteOffset":557672,
			"target":34963
		},
		{
			"buffer":0,
			"byteLength":5424,
			"byteOffset":579056,
			"target":34962
		},
		{
			"buffer":0,
			"byteLength":5424,
			"byteOffset":584480,
			"target":34962
		},
		{
			"buffer":0,
			"byteLength":3616,
			"byteOffset":589904,
			"target":34962
		},
		{
			"buffer":0,
			"byteLength":3816,
			"byteOffset":593520,
			"target":34963
		},
		{
			"buffer":0,
			"byteLength":1495380,
			"byteOffset":597336,
			"target":34962
		},
		{
			"buffer":0,
			"byteLength":1495380,
			"byteOffset":2092716,
			"target":34962
		},
		{
			"buffer":0,
			"byteLength":996920,
			"byteOffset":3588096,
			"target":34962
		},
		{
			"buffer":0,
			"byteLength":2990712,
			"byteOffset":4585016,
			"target":34963
		},
		{
			"buffer":0,
			"byteLength":8424,
			"byteOffset":7575728,
			"target":34962
		},
		{
			"buffer":0,
			"byteLength":8424,
			"byteOffset":7584152,
			"target":34962
		},
		{
			"buffer":0,
			"byteLength":5616,
			"byteOffset":7592576,
			"target":34962
		},
		{
			"buffer":0,
			"byteLength":7800,
			"byteOffset":7598192,
			"target":34963
		},
		{
			"buffer":0,
			"byteLength":911400,
			"byteOffset":7605992,
			"target":34962
		},
		{
			"buffer":0,
			"byteLength":911400,
			"byteOffset":8517392,
			"target":34962
		},
		{
			"buffer":0,
			"byteLength":607600,
			"byteOffset":9428792,
			"target":34962
		},
		{
			"buffer":0,
			"byteLength":1714176,
			"byteOffset":10036392,
			"target":34963
		},
		{
			"buffer":0,
			"byteLength":32124,
			"byteOffset":11750568,
			"target":34962
		},
		{
			"buffer":0,
			"byteLength":32124,
			"byteOffset":11782692,
			"target":34962
		},
		{
			"buffer":0,
			"byteLength":21416,
			"byteOffset":11814816,
			"target":34962
		},
		{
			"buffer":0,
			"byteLength":18552,
			"byteOffset":11836232,
			"target":34963
		}
	],
	"buffers":[
		{
			"byteLength":11854784,
			"uri":"scene.bin"
		}
	]
}
