{
	"asset":{
		"generator":"Khronos glTF Blender I/O v4.4.56",
		"version":"2.0"
	},
	"scene":0,
	"scenes":[
		{
			"name":"Scene",
			"nodes":[
				0,
				1,
				2,
				3,
				4,
				5,
				6,
				7,
				8,
				9,
				10,
				11,
				12
			]
		}
	],
	"nodes":[
		{
			"mesh":0,
			"name":"Sphere",
			"rotation":[
				0,
				-0.865231454372406,
				0,
				0.5013726353645325
			]
		},
		{
			"mesh":1,
			"name":"Cylinder",
			"rotation":[
				0.11480867862701416,
				-0.3958098888397217,
				-0.25381991267204285,
				0.8750594258308411
			],
			"translation":[
				-0.055035557597875595,
				-0.4977148771286011,
				-0.43421000242233276
			]
		},
		{
			"mesh":2,
			"name":"Mball.004",
			"rotation":[
				0,
				-0.1865747720003128,
				0,
				0.9824407696723938
			],
			"scale":[
				0.9582144618034363,
				0.958214521408081,
				0.9582144618034363
			],
			"translation":[
				-0.4672118127346039,
				0.060000013560056686,
				0.28218838572502136
			]
		},
		{
			"mesh":3,
			"name":"Curve",
			"rotation":[
				0.5946322679519653,
				0.145030215382576,
				-0.11012545973062515,
				0.7831035256385803
			],
			"scale":[
				14.403623580932617,
				14.403623580932617,
				14.403623580932617
			],
			"translation":[
				-0.5489948987960815,
				0.1709066480398178,
				-1.5693457126617432
			]
		},
		{
			"mesh":4,
			"name":"Curve.001",
			"rotation":[
				0.7620086669921875,
				0.47312989830970764,
				-0.3056946396827698,
				0.31943967938423157
			],
			"scale":[
				2.219675302505493,
				2.219675302505493,
				2.219674825668335
			],
			"translation":[
				-0.9005841016769409,
				0.565081775188446,
				0.2870892286300659
			]
		},
		{
			"mesh":5,
			"name":"Curve.002",
			"rotation":[
				0.4915194511413574,
				0.528651237487793,
				0.12142632156610489,
				0.6813164353370667
			],
			"scale":[
				2.219675302505493,
				2.219675302505493,
				2.219674825668335
			],
			"translation":[
				1.0491095781326294,
				-0.43335503339767456,
				-1.0581161975860596
			]
		},
		{
			"mesh":6,
			"name":"Curve.003",
			"rotation":[
				0.3073884844779968,
				0.2295377105474472,
				-0.32983943819999695,
				0.8625721335411072
			],
			"scale":[
				2.219675302505493,
				2.219675302505493,
				2.219674825668335
			],
			"translation":[
				0.6577320098876953,
				0.22730094194412231,
				-0.006962597370147705
			]
		},
		{
			"mesh":7,
			"name":"Curve.004",
			"rotation":[
				0.3269128203392029,
				0.692628026008606,
				0.5386996269226074,
				0.35099467635154724
			],
			"scale":[
				1.0718309879302979,
				1.0718309879302979,
				1.0718307495117188
			],
			"translation":[
				-0.1906251460313797,
				-0.12630993127822876,
				1.5380158424377441
			]
		},
		{
			"name":"BezierCurve",
			"translation":[
				-0.6511735916137695,
				0,
				-1.5289366245269775
			]
		},
		{
			"mesh":8,
			"name":"Torus",
			"scale":[
				2.075150728225708,
				2.075150728225708,
				1.9970213174819946
			],
			"translation":[
				-0.6511735916137695,
				0,
				-1.5289366245269775
			]
		},
		{
			"mesh":9,
			"name":"Curve.005",
			"rotation":[
				0.016122261062264442,
				-0.503964364528656,
				-0.6381092071533203,
				0.5818734169006348
			],
			"translation":[
				-0.735689640045166,
				1.5130196809768677,
				-0.9810565710067749
			]
		},
		{
			"mesh":10,
			"name":"Curve.006",
			"rotation":[
				0.12236180156469345,
				-0.6494734287261963,
				-0.6844393610954285,
				0.3078225553035736
			],
			"translation":[
				-1.813714623451233,
				0.9281506538391113,
				-0.5570929050445557
			]
		},
		{
			"mesh":11,
			"name":"Text",
			"rotation":[
				0.6774128079414368,
				0.2596040964126587,
				0.044572535902261734,
				0.6868267059326172
			],
			"scale":[
				0.6299155950546265,
				0.6299157738685608,
				0.6299157738685608
			],
			"translation":[
				-1.4090725183486938,
				1.2015575170516968,
				-0.6911205649375916
			]
		}
	],
	"materials":[
		{
			"doubleSided":true,
			"name":"Oro",
			"pbrMetallicRoughness":{
				"baseColorFactor":[
					0.07585157454013824,
					0.20181719958782196,
					0.8004740476608276,
					1
				],
				"roughnessFactor":0.07611164450645447
			}
		}
	],
	"meshes":[
		{
			"name":"Sphere.003",
			"primitives":[
				{
					"attributes":{
						"POSITION":0,
						"NORMAL":1,
						"TEXCOORD_0":2
					},
					"indices":3,
					"material":0
				}
			]
		},
		{
			"name":"Cylinder",
			"primitives":[
				{
					"attributes":{
						"POSITION":4,
						"NORMAL":5,
						"TEXCOORD_0":6
					},
					"indices":7,
					"material":0
				}
			]
		},
		{
			"name":"Mesh",
			"primitives":[
				{
					"attributes":{
						"POSITION":8,
						"NORMAL":9
					},
					"indices":10,
					"material":0
				}
			]
		},
		{
			"name":"Curve",
			"primitives":[
				{
					"attributes":{
						"POSITION":11,
						"NORMAL":12,
						"TEXCOORD_0":13
					},
					"indices":14,
					"material":0
				}
			]
		},
		{
			"name":"Curve.008",
			"primitives":[
				{
					"attributes":{
						"POSITION":15,
						"NORMAL":16,
						"TEXCOORD_0":17
					},
					"indices":14,
					"material":0
				}
			]
		},
		{
			"name":"Curve.009",
			"primitives":[
				{
					"attributes":{
						"POSITION":18,
						"NORMAL":19,
						"TEXCOORD_0":20
					},
					"indices":14,
					"material":0
				}
			]
		},
		{
			"name":"Curve.010",
			"primitives":[
				{
					"attributes":{
						"POSITION":21,
						"NORMAL":22,
						"TEXCOORD_0":23
					},
					"indices":14,
					"material":0
				}
			]
		},
		{
			"name":"Curve.011",
			"primitives":[
				{
					"attributes":{
						"POSITION":24,
						"NORMAL":25,
						"TEXCOORD_0":26
					},
					"indices":14,
					"material":0
				}
			]
		},
		{
			"name":"Torus",
			"primitives":[
				{
					"attributes":{
						"POSITION":27,
						"NORMAL":28,
						"TEXCOORD_0":29
					},
					"indices":30,
					"material":0
				}
			]
		},
		{
			"name":"Curve.003",
			"primitives":[
				{
					"attributes":{
						"POSITION":31,
						"NORMAL":32,
						"TEXCOORD_0":33
					},
					"indices":34,
					"material":0
				}
			]
		},
		{
			"name":"Curve.004",
			"primitives":[
				{
					"attributes":{
						"POSITION":35,
						"NORMAL":36,
						"TEXCOORD_0":37
					},
					"indices":34,
					"material":0
				}
			]
		},
		{
			"name":"Text",
			"primitives":[
				{
					"attributes":{
						"POSITION":38,
						"NORMAL":39,
						"TEXCOORD_0":40
					},
					"indices":41,
					"material":0
				}
			]
		}
	],
	"accessors":[
		{
			"bufferView":0,
			"componentType":5126,
			"count":69404,
			"max":[
				1.2965281009674072,
				0.29001009464263916,
				1.2965285778045654
			],
			"min":[
				-1.2965292930603027,
				-1.0220850706100464,
				-1.29652738571167
			],
			"type":"VEC3"
		},
		{
			"bufferView":1,
			"componentType":5126,
			"count":69404,
			"type":"VEC3"
		},
		{
			"bufferView":2,
			"componentType":5126,
			"count":69404,
			"type":"VEC2"
		},
		{
			"bufferView":3,
			"componentType":5125,
			"count":408960,
			"type":"SCALAR"
		},
		{
			"bufferView":4,
			"componentType":5126,
			"count":357,
			"max":[
				1.0321991443634033,
				2.1199216842651367,
				0.030000030994415283
			],
			"min":[
				0.563147783279419,
				-0.033804476261138916,
				-0.030000030994415283
			],
			"type":"VEC3"
		},
		{
			"bufferView":5,
			"componentType":5126,
			"count":357,
			"type":"VEC3"
		},
		{
			"bufferView":6,
			"componentType":5126,
			"count":357,
			"type":"VEC2"
		},
		{
			"bufferView":7,
			"componentType":5123,
			"count":1716,
			"type":"SCALAR"
		},
		{
			"bufferView":8,
			"componentType":5126,
			"count":2606,
			"max":[
				0.8928453922271729,
				0.25813713669776917,
				0.24736036360263824
			],
			"min":[
				-0.35529032349586487,
				-0.25813716650009155,
				-1.1665639877319336
			],
			"type":"VEC3"
		},
		{
			"bufferView":9,
			"componentType":5126,
			"count":2606,
			"type":"VEC3"
		},
		{
			"bufferView":10,
			"componentType":5123,
			"count":15588,
			"type":"SCALAR"
		},
		{
			"bufferView":11,
			"componentType":5126,
			"count":10138,
			"max":[
				0.11665574461221695,
				0.009999999776482582,
				0.12091550976037979
			],
			"min":[
				-0.12707823514938354,
				-0.009999999776482582,
				-0.12278178334236145
			],
			"type":"VEC3"
		},
		{
			"bufferView":12,
			"componentType":5126,
			"count":10138,
			"type":"VEC3"
		},
		{
			"bufferView":13,
			"componentType":5126,
			"count":10138,
			"type":"VEC2"
		},
		{
			"bufferView":14,
			"componentType":5123,
			"count":29310,
			"type":"SCALAR"
		},
		{
			"bufferView":15,
			"componentType":5126,
			"count":10138,
			"max":[
				0.11665574461221695,
				0.009999999776482582,
				0.12091550976037979
			],
			"min":[
				-0.12707823514938354,
				-0.009999999776482582,
				-0.12278178334236145
			],
			"type":"VEC3"
		},
		{
			"bufferView":16,
			"componentType":5126,
			"count":10138,
			"type":"VEC3"
		},
		{
			"bufferView":17,
			"componentType":5126,
			"count":10138,
			"type":"VEC2"
		},
		{
			"bufferView":18,
			"componentType":5126,
			"count":10138,
			"max":[
				0.11665574461221695,
				0.009999999776482582,
				0.12091550976037979
			],
			"min":[
				-0.12707823514938354,
				-0.009999999776482582,
				-0.12278178334236145
			],
			"type":"VEC3"
		},
		{
			"bufferView":19,
			"componentType":5126,
			"count":10138,
			"type":"VEC3"
		},
		{
			"bufferView":20,
			"componentType":5126,
			"count":10138,
			"type":"VEC2"
		},
		{
			"bufferView":21,
			"componentType":5126,
			"count":10138,
			"max":[
				0.11665574461221695,
				0.009999999776482582,
				0.12091550976037979
			],
			"min":[
				-0.12707823514938354,
				-0.009999999776482582,
				-0.12278178334236145
			],
			"type":"VEC3"
		},
		{
			"bufferView":22,
			"componentType":5126,
			"count":10138,
			"type":"VEC3"
		},
		{
			"bufferView":23,
			"componentType":5126,
			"count":10138,
			"type":"VEC2"
		},
		{
			"bufferView":24,
			"componentType":5126,
			"count":10138,
			"max":[
				0.11665574461221695,
				0.009999999776482582,
				0.12091550976037979
			],
			"min":[
				-0.12707823514938354,
				-0.009999999776482582,
				-0.12278178334236145
			],
			"type":"VEC3"
		},
		{
			"bufferView":25,
			"componentType":5126,
			"count":10138,
			"type":"VEC3"
		},
		{
			"bufferView":26,
			"componentType":5126,
			"count":10138,
			"type":"VEC2"
		},
		{
			"bufferView":27,
			"componentType":5126,
			"count":1230666,
			"max":[
				0.8702303767204285,
				0.7645449638366699,
				0.5032562017440796
			],
			"min":[
				-0.6419360041618347,
				0.13442374765872955,
				-0.6467440724372864
			],
			"type":"VEC3"
		},
		{
			"bufferView":28,
			"componentType":5126,
			"count":1230666,
			"type":"VEC3"
		},
		{
			"bufferView":29,
			"componentType":5126,
			"count":1230666,
			"type":"VEC2"
		},
		{
			"bufferView":30,
			"componentType":5125,
			"count":1853616,
			"type":"SCALAR"
		},
		{
			"bufferView":31,
			"componentType":5126,
			"count":7780,
			"max":[
				0.13678281009197235,
				0.014999999664723873,
				0.13876177370548248
			],
			"min":[
				-0.14102859795093536,
				-0.014999999664723873,
				-0.13899527490139008
			],
			"type":"VEC3"
		},
		{
			"bufferView":32,
			"componentType":5126,
			"count":7780,
			"type":"VEC3"
		},
		{
			"bufferView":33,
			"componentType":5126,
			"count":7780,
			"type":"VEC2"
		},
		{
			"bufferView":34,
			"componentType":5123,
			"count":39888,
			"type":"SCALAR"
		},
		{
			"bufferView":35,
			"componentType":5126,
			"count":7780,
			"max":[
				0.13678281009197235,
				0.014999999664723873,
				0.13876177370548248
			],
			"min":[
				-0.14102859795093536,
				-0.014999999664723873,
				-0.13899527490139008
			],
			"type":"VEC3"
		},
		{
			"bufferView":36,
			"componentType":5126,
			"count":7780,
			"type":"VEC3"
		},
		{
			"bufferView":37,
			"componentType":5126,
			"count":7780,
			"type":"VEC2"
		},
		{
			"bufferView":38,
			"componentType":5126,
			"count":1718,
			"max":[
				1.0865755081176758,
				0,
				0.17630909383296967
			],
			"min":[
				-0.5705673098564148,
				-0.028413427993655205,
				-0.15146231651306152
			],
			"type":"VEC3"
		},
		{
			"bufferView":39,
			"componentType":5126,
			"count":1718,
			"type":"VEC3"
		},
		{
			"bufferView":40,
			"componentType":5126,
			"count":1718,
			"type":"VEC2"
		},
		{
			"bufferView":41,
			"componentType":5123,
			"count":3420,
			"type":"SCALAR"
		}
	],
	"bufferViews":[
		{
			"buffer":0,
			"byteLength":832848,
			"byteOffset":0,
			"target":34962
		},
		{
			"buffer":0,
			"byteLength":832848,
			"byteOffset":832848,
			"target":34962
		},
		{
			"buffer":0,
			"byteLength":555232,
			"byteOffset":1665696,
			"target":34962
		},
		{
			"buffer":0,
			"byteLength":1635840,
			"byteOffset":2220928,
			"target":34963
		},
		{
			"buffer":0,
			"byteLength":4284,
			"byteOffset":3856768,
			"target":34962
		},
		{
			"buffer":0,
			"byteLength":4284,
			"byteOffset":3861052,
			"target":34962
		},
		{
			"buffer":0,
			"byteLength":2856,
			"byteOffset":3865336,
			"target":34962
		},
		{
			"buffer":0,
			"byteLength":3432,
			"byteOffset":3868192,
			"target":34963
		},
		{
			"buffer":0,
			"byteLength":31272,
			"byteOffset":3871624,
			"target":34962
		},
		{
			"buffer":0,
			"byteLength":31272,
			"byteOffset":3902896,
			"target":34962
		},
		{
			"buffer":0,
			"byteLength":31176,
			"byteOffset":3934168,
			"target":34963
		},
		{
			"buffer":0,
			"byteLength":121656,
			"byteOffset":3965344,
			"target":34962
		},
		{
			"buffer":0,
			"byteLength":121656,
			"byteOffset":4087000,
			"target":34962
		},
		{
			"buffer":0,
			"byteLength":81104,
			"byteOffset":4208656,
			"target":34962
		},
		{
			"buffer":0,
			"byteLength":58620,
			"byteOffset":4289760,
			"target":34963
		},
		{
			"buffer":0,
			"byteLength":121656,
			"byteOffset":4348380,
			"target":34962
		},
		{
			"buffer":0,
			"byteLength":121656,
			"byteOffset":4470036,
			"target":34962
		},
		{
			"buffer":0,
			"byteLength":81104,
			"byteOffset":4591692,
			"target":34962
		},
		{
			"buffer":0,
			"byteLength":121656,
			"byteOffset":4672796,
			"target":34962
		},
		{
			"buffer":0,
			"byteLength":121656,
			"byteOffset":4794452,
			"target":34962
		},
		{
			"buffer":0,
			"byteLength":81104,
			"byteOffset":4916108,
			"target":34962
		},
		{
			"buffer":0,
			"byteLength":121656,
			"byteOffset":4997212,
			"target":34962
		},
		{
			"buffer":0,
			"byteLength":121656,
			"byteOffset":5118868,
			"target":34962
		},
		{
			"buffer":0,
			"byteLength":81104,
			"byteOffset":5240524,
			"target":34962
		},
		{
			"buffer":0,
			"byteLength":121656,
			"byteOffset":5321628,
			"target":34962
		},
		{
			"buffer":0,
			"byteLength":121656,
			"byteOffset":5443284,
			"target":34962
		},
		{
			"buffer":0,
			"byteLength":81104,
			"byteOffset":5564940,
			"target":34962
		},
		{
			"buffer":0,
			"byteLength":14767992,
			"byteOffset":5646044,
			"target":34962
		},
		{
			"buffer":0,
			"byteLength":14767992,
			"byteOffset":20414036,
			"target":34962
		},
		{
			"buffer":0,
			"byteLength":9845328,
			"byteOffset":35182028,
			"target":34962
		},
		{
			"buffer":0,
			"byteLength":7414464,
			"byteOffset":45027356,
			"target":34963
		},
		{
			"buffer":0,
			"byteLength":93360,
			"byteOffset":52441820,
			"target":34962
		},
		{
			"buffer":0,
			"byteLength":93360,
			"byteOffset":52535180,
			"target":34962
		},
		{
			"buffer":0,
			"byteLength":62240,
			"byteOffset":52628540,
			"target":34962
		},
		{
			"buffer":0,
			"byteLength":79776,
			"byteOffset":52690780,
			"target":34963
		},
		{
			"buffer":0,
			"byteLength":93360,
			"byteOffset":52770556,
			"target":34962
		},
		{
			"buffer":0,
			"byteLength":93360,
			"byteOffset":52863916,
			"target":34962
		},
		{
			"buffer":0,
			"byteLength":62240,
			"byteOffset":52957276,
			"target":34962
		},
		{
			"buffer":0,
			"byteLength":20616,
			"byteOffset":53019516,
			"target":34962
		},
		{
			"buffer":0,
			"byteLength":20616,
			"byteOffset":53040132,
			"target":34962
		},
		{
			"buffer":0,
			"byteLength":13744,
			"byteOffset":53060748,
			"target":34962
		},
		{
			"buffer":0,
			"byteLength":6840,
			"byteOffset":53074492,
			"target":34963
		}
	],
	"buffers":[
		{
			"byteLength":53081332,
			"uri":"scene.bin"
		}
	]
}
